<svg xmlns="http://www.w3.org/2000/svg" id="Layer_1" data-name="Layer 1" viewBox="0 0 122.88 119.78"><title>real-time</title><path d="M63,7.81A3.91,3.91,0,1,1,63,0,59.91,59.91,0,1,1,11.17,29.87L6.89,31.51A5.08,5.08,0,1,1,3.28,22L16.5,17a5.17,5.17,0,0,1,1.57-.32,5.05,5.05,0,0,1,5.65,3.53L27.87,33.7a5.07,5.07,0,1,1-9.7,2.94l-.66-2.15a52.08,52.08,0,0,0,82.3,62.22A52.08,52.08,0,0,0,63,7.81Zm-14.1,57c-3.3-3.55,1.76-8.85,5.43-5.5,1.3,1.18,3.18,2.91,4.48,4.08l12.69-15c3.51-3.62,9,1.7,5.58,5.35L61.82,71.41a3.9,3.9,0,0,1-5.4.23c-2.14-2-5.28-5-7.53-6.86ZM40.32,33.61a3.37,3.37,0,0,1,5.85-3.36l1.67,2.9A3.37,3.37,0,0,1,42,36.51l-1.68-2.9Zm-10,13.53a3.38,3.38,0,1,1,3.39-5.85L36.64,43a3.38,3.38,0,0,1-3.39,5.85l-2.9-1.68Zm4.9,34.4a3.37,3.37,0,0,1-3.36-5.84L34.8,74a3.37,3.37,0,0,1,3.36,5.85l-2.91,1.67ZM27.43,63.26a3.37,3.37,0,0,1,0-6.74h3.36a3.37,3.37,0,0,1,0,6.74Zm37.78,31a3.38,3.38,0,0,1-6.75,0V90.94a3.38,3.38,0,0,1,6.75,0v3.35Zm-6.75-68.8a3.38,3.38,0,1,1,6.75,0v3.35a3.38,3.38,0,0,1-6.75,0V25.49ZM47.56,91.37A3.38,3.38,0,1,1,41.71,88l1.68-2.9a3.37,3.37,0,1,1,5.84,3.38l-1.67,2.9ZM83.49,88a3.37,3.37,0,1,1-5.85,3.36L76,88.46a3.37,3.37,0,0,1,5.85-3.36L83.49,88Zm9.83-12.3a3.37,3.37,0,0,1-3.38,5.84L87,79.87A3.38,3.38,0,0,1,90.42,74l2.9,1.68ZM91.48,41.29a3.37,3.37,0,0,1,3.36,5.85l-2.9,1.68A3.37,3.37,0,0,1,88.58,43l2.9-1.68ZM79.7,31.51a3.38,3.38,0,0,1,5.85,3.39l-1.68,2.9A3.38,3.38,0,1,1,78,34.41l1.67-2.9Zm18.85,25a3.37,3.37,0,1,1,0,6.74H95a3.37,3.37,0,0,1,0-6.74Z"></path></svg>